<svg version="1.1" id="Ebene_1" xmlns="http://www.w3.org/2000/svg" xmlns:xlink="http://www.w3.org/1999/xlink" x="0" y="0" viewBox="0 0 424 255" xml:space="preserve"><style>.st5{fill:#6b6e89}.st6{fill:#b8bbca}.st7{fill:#a4a8b9}.st8{fill:#f6a719}.st9{fill:#494d54}.st11{fill:#3e4349}.st12{fill:#ad8462}.st13{fill:#c19c89}.st14{fill:#d4b4a1}.st15{fill:#b9926d}.st16{fill:#a68141}.st17{fill:#e9e3e0}.st18{fill:#b1874a}.st19{fill:#f1f3f8}.st20{fill:#ebedf2}.st21{fill:#fff}.st23{fill:#829ac4}.st24{fill:#38271e}.st25{fill:#3d2d23}.st26{fill:#2c1d17}.st30{opacity:9.000000e-02;fill:#2c465b;enable-background:new}.st33{fill:#a77756}.st34{fill:#f2eeec}.st36{fill:#fffffd}.st37{fill:#b68565}.st38{fill:#a77a5b}.st39{fill:#b5705b}.st40{fill:#b9b9ad}.st41{fill:#44362e}.st42{fill:#3b2513}.st44{fill:#4778ab}.st46{fill:#878383}.st47,.st48,.st50{clip-path:url(#SVGID_12_);fill:#4778ab}.st48,.st50{fill:#386d96}.st50{fill:#b68565}</style><defs><path id="SVGID_1_" d="M239 49.3l28.2 4.5L206.1 256l-124.2.1-7.1-49.9 25.4-72.3s17.4-46.5 53.3-63c21-9.7 37.9-17.5 38.9-18 5.3-2.6 46.6-3.6 46.6-3.6z"/></defs><clipPath id="SVGID_2_"><use xlink:href="#SVGID_1_" overflow="visible"/></clipPath><g clip-path="url(#SVGID_2_)"><path d="M370.2 189.5c0-76.9-62.4-139.2-139.3-139.2S91.7 112.7 91.7 189.6c0 23.1 5.8 45.9 16.8 66.3l244.2.1c11.5-20.3 17.6-43.2 17.5-66.5z" fill="#fccb80"/></g><defs><path id="SVGID_3_" d="M285.7 59l-18.5-5.2-.5 1.4L206.1 256l151.3-.3 15.3-51L368 139l-32-44.1-19.3-17z"/></defs><clipPath id="SVGID_4_"><use xlink:href="#SVGID_3_" overflow="visible"/></clipPath><g clip-path="url(#SVGID_4_)"><circle cx="231" cy="189.5" r="139.3" fill="#7cc5b9"/></g><defs><path id="SVGID_5_" d="M210.3 66.7h170.6v189.4H210.3z"/></defs><clipPath id="SVGID_6_"><use xlink:href="#SVGID_5_" overflow="visible"/></clipPath><g clip-path="url(#SVGID_6_)"><path id="_Pfad_" class="st5" d="M324.3 144.9s9.5 16.3 2.8 18.4c-5.9 1.7-11.9 3-17.9 4l.5 2.8 16.7-4.4s5.4-1.3 5.3-6.5-5.7-16.1-5.7-16.1l-1.7 1.8z"/><ellipse id="_Pfad_2" transform="matrix(1 -.00332 .00332 1 -.448 1.072)" class="st6" cx="323.2" cy="135.5" rx="6.5" ry="10"/><ellipse id="_Pfad_3" transform="matrix(1 -.00768 .00768 1 -1.03 2.46)" class="st7" cx="319.8" cy="135.4" rx="8.7" ry="12.6"/><ellipse id="_Pfad_4" transform="matrix(1 -.00332 .00332 1 -.446 1.056)" class="st8" cx="318.4" cy="135.1" rx="8.1" ry="12.6"/><path class="st8" d="M246.3 201.3c-5.9 2.3-6.1 9.6-8.4 20.8-1 4.8-4.1 19.5-6.4 33.8h27c1-10.4 1.7-20.7 2-24.6.9-9.4 2.3-21 0-25.6s-7-7.3-14.2-4.4zM342.4 194.5c6 2.1 6.4 9.4 9.1 20.5 1.5 6.1 3.9 24.5 5.9 40.6h-24.3c-1.7-12.9-3.3-25.6-4-30.6-1.2-9.4-3-20.9-.9-25.6s6.9-7.5 14.2-4.9z"/><path class="st9" d="M274.6 190.6c-14.8 2.3-28.9 5.8-31.6 12.4-2.4 5.7 3.4 31.8 8.6 52.9l91.7.1c1.1-20.6 2.3-43 2.3-43s5.1-16.6-9-23.3c-12.9-6-55.8-.1-62 .9z"/><path class="st9" d="M261.2 193.8s-1-10.3 12.1-16.9 43.7-9.2 52.4 12.5c-6.9 21.2-37.1 50.3-64.5 4.4z"/><path d="M271.3 189.6s-.5-4.5 8.5-7.7 29.9-4.8 35.5 4.7c-5.1 9.5-26.1 22.8-44 3z" fill="#363c42"/><path class="st11" d="M266.9 199.7s10.7 8.9 22.5 11.1c-8.1 2.7-23-7.3-22.5-11.1z"/><path class="st8" d="M274.7 206.1l1.2 18.3-1.3 3.5 4.9-.3-1.1-3.4-1.1-16.9z"/><ellipse transform="matrix(.956 -.2932 .2932 .956 -52.95 91)" class="st12" cx="277.1" cy="222.1" rx="2.8" ry="2.8"/><path class="st11" d="M322.2 195.9s-9.5 10.3-20.9 14.1c8.3 1.5 21.9-10.4 20.9-14.1z"/><path class="st8" d="M315.2 203.4l1.2 18.2 1.7 3.4-4.9.3.7-3.5-1-16.9z"/><ellipse transform="rotate(-17.05 314.941 219.555)" class="st12" cx="314.9" cy="219.5" rx="2.8" ry="2.8"/><path id="_Pfad_5" class="st13" d="M279 184.1s-.6 15.1 12.9 15.1 13.7-14.3 13.7-14.3l-14.6-4.3-12 3.5z"/><g id="_Gruppe_"><path id="_Pfad_6" class="st13" d="M281.6 160.1l-4 25.9s-1.5 10 11.9 13 15-7.7 15-7.7l5.4-26.4s3.2-9.6-12-12.7-16.3 7.9-16.3 7.9z"/><g id="_Gruppe_2"><g id="_Gruppe_3"><path class="st14" d="M316.1 94.9c16.4 12 7.7 38.9 7.7 38.9l-3.9 17.8c-11-5.7-26.4 2.6-30.8 1.7-4.6-1-9.1-4.4-11.9-4.4-3.2-.1-9.1-.8-12.6-4.7-3.8-4.1-4.1-12.1.8-13.7-6.4-14.9 3-32.9 9.8-37.5 12.7-7.7 28.9-7 40.9 1.9z"/><path class="st15" d="M320.6 162.1c.2 5.2-.3 10.3-1.5 15.4-1.2 5.5-5.6 4-5.6 4s-5-.3-14.5-4.3-11-9.6-11-9.6-8.3-14.8-8.7-15.8c0 0-.9-1.1-2.1-2.9 2.8 0 7.4 3.4 11.9 4.4 4.4.9 19.7-7.4 30.8-1.7l-.4 1.9c.3 1.1.6 2.3.7 3.4-2.8-1.8-5.9-2.7-9.2-2.8-6.6-.1-16.3 2.8-18.1 4.2s-.7 8.9 4.8 12.3 12.2 6.8 16.1 5.7 5.3-7.9 5.5-9.4c.1-.9.7-3 1.3-4.8z"/><path class="st14" d="M320.6 162.1c-.6 1.8-1.2 3.9-1.4 4.7-.3 1.5-1.7 8.3-5.5 9.4s-10.5-2.4-16.1-5.7-6.6-10.8-4.8-12.3 11.5-4.4 18.1-4.2c3.3.1 6.4 1.1 9.2 2.8.3 1.9.4 3.6.5 5.3z"/></g></g><path id="_Pfad_7" class="st13" d="M301.2 145.5s1.5 1.6 6.1 3.2c5 1.8 6.6.8 7.1-1.6s1.2-3.1-.8-4.5-3.5-8.3-3.5-8.3 2.7 6.2 4.4 7.3 3 2.9 2.4 4.6-2 5.4-5.4 6.2c-7.1 1.8-10.3-6.9-10.3-6.9z"/><path id="_Pfad_8" class="st13" d="M275.9 144.3l-4.8-9.9s-2.8-1.9-4.6 0-2 9.4 9.4 9.9z"/><path class="st15" d="M279.3 151.8l-6.2-18.9s-2.4-3.9-7.8-2.4c-2.9-5-3.5-11.4-2-20.1s9.7-22.6 29-22.8c12.4-.7 22.4-3.9 23.8 7.2 9.2 3.8 9.2 14.9 9.2 14.9s-3.5-9.7-8.3-9.7-1.9 7.4-19.6 2.4c-13.1-3.7-15.7.4-17 3.8s-10.4 22.7 4.6 48c-1.1 3.1-5.7-2.4-5.7-2.4z"/><path id="_Pfad_9" class="st16" d="M300.3 115.3l1.2 5.5s-10.7 1.9-14.9 9.8c-1.6-5.1 1-13.2 13.7-15.3z"/></g><path class="st16" d="M316.1 94.9s0-11.5-5.6-12.1-26.2-.4-41.5 10.9-7.2 29.9-7.2 29.9h20.7s14.5-13.3 19-23.8 11.9-13.5 14.6-4.9z"/><path class="st16" d="M295.6 105.8s11.9 2.7 16.3-1.6 6.9-3.7 9.6-.8 4.1 17.8 4.1 17.8 6-25.2-10-28.4c-3.6-6-4.6-4.8-5.8-4.7s-14.3 4.2-14.3 4.2l.1 13.5zM253.4 113.4s10.3 3.7 20.6-.7l10.3-4.4c.1 0-21.8 25.5-30.9 5.1z"/><path class="st16" d="M252.6 118.3s18.3 5.3 29.6-4.6S298.9 95 298.9 95s-11.1 53.9-46.3 23.3z"/><path class="st16" d="M256.1 109.2s5.6 11.8 11.6 7.5c5.7-2.7 1.5-7 1.5-7s-4.5 2.7-13.1-.5z"/><ellipse id="_Pfad_10" class="st17" cx="294.2" cy="132.5" rx="5.2" ry="4.4"/><ellipse id="_Pfad_11" class="st17" cx="315.8" cy="132.5" rx="5.2" ry="4.4"/><ellipse id="_Pfad_12" cx="296.4" cy="134" rx="1.5" ry="1.9"/><ellipse id="_Pfad_13" cx="317.1" cy="134" rx="1.5" ry="1.9"/><path id="_Pfad_14" class="st16" d="M309.1 116.2c-.4.1-.3 3.5-.3 3.5s11.8 1.1 14.1 6.4c1.2-2.7-1-6.1-2.3-7.4-1.8-2-6.2-3.4-11.5-2.5z"/><path id="_Pfad_15" class="st13" d="M299.6 160.2s8.8 2 16.2-.4c1.5-.9 2.3-1.2 1.9.2-.1.6-.4 1.2-.7 1.7l-1-1s-8.8 3.6-16.5.4l-1.1.8s-1-2.4-.3-2.8 1.5 1.1 1.5 1.1z"/><path id="_Pfad_16" class="st5" d="M287.3 90.6c-27.1 9.1-17.1 38-17.1 38l5.8-1.1.6-1c-.1.1-10.2-21.2 10.7-35.9z"/><ellipse id="_Pfad_17" transform="rotate(-8.545 275.422 137.407)" class="st8" cx="275.5" cy="137.5" rx="8.4" ry="12.6"/><ellipse id="_Pfad_18" transform="rotate(-8.545 272.761 137.67)" class="st7" cx="272.8" cy="137.7" rx="8.4" ry="12.6"/><ellipse id="_Pfad_19" transform="rotate(-8.545 271.013 137.344)" class="st6" cx="271" cy="137.4" rx="6.7" ry="10"/><path class="st17" d="M299.3 161s9.5 2.6 16.5-.4c-2.7 4.5-8.9 6.2-16.5.4z"/><path class="st13" d="M292.1 138.1s4.9.6 7.7-2.6c-2.9 3.9-4.4 3.9-7.7 2.6zM312.5 137.2s5.1 2.2 7.3 0c-1.5 2-4.3 2.4-6.3 1-.4-.3-.7-.6-1-1z"/><path class="st18" d="M314.7 101.6s4-11.5-5.3-14.6-16 18.4-22.1 27.8-13.8 5.2-15.1 1.9c1.5 10.1 12.7 12.7 23.4 2.8 8-7.5 7.2-17 10.5-21.7s7.9-6.6 8.6 3.8zM298.1 84.3s-6.9-4.9-10.3 2c-5.6 11.2-11 10.4-15 12.5 3.2 1.7 9.6.4 15-4.1 1.5-1.4 6.7-10.5 10.3-10.4z"/><path id="_Pfad_20" class="st5" d="M327.9 151s5.9 10.2-.9 12.3c-5.9 1.7-11.9 3-17.9 4l.5 2.8 16.7-4.4s5.4-1.3 5.3-6.5-3.4-10-3.4-10l-.3 1.8z"/><ellipse id="_Pfad_21" transform="rotate(-10.12 312.523 167.375)" class="st8" cx="312.5" cy="167.4" rx="5.5" ry="3.9"/></g><path class="st19" d="M423.7 206.2l-7.1 49.8h-90.5l2.8-47.4c.1-.8 30.9-3.9 31.6-4l61.5-.3c.9-.1 1.7.6 1.8 1.6 0 .1 0 .2-.1.3z"/><path class="st20" d="M320.4 256l6.8-48.8c.1-.8.8-1.4 1.6-1.4l86.1-4.1c.6 0 1.1 0 1.7.1l6.2 2.7-87.4 4.4c-1.6.1-2.9 1.3-3.1 2.9l-6.2 44.3-5.7-.1z"/><path class="st21" d="M381 240.6c-1.9.1-3.4-2-3.3-4.9s1.9-4.9 3.7-4.6c1 .2 1.8.9 2.2 1.9l.9-3.2c-.7-1.1-1.7-1.8-2.9-2.2-3.3-.8-6.6 2.7-6.9 7.9s2.8 9 6.1 8.5c1.2-.2 2.3-.9 3.1-1.9l-.6-3.2c-.4.9-1.3 1.6-2.3 1.7z"/><path class="st21" d="M384.9 230.5l-1 3.4c-.1.2-.2.4-.4.3s-.2-.1-.3-.3c-.3-.9-1-1.6-1.9-1.8-1.4-.2-2.8 1.4-2.9 3.6s1.1 3.9 2.5 3.8c.9-.1 1.7-.8 2.1-1.7l.3-.3c.2 0 .3.1.3.4l.7 3.5c2.1-3.2 2.3-7.4.6-10.9z"/><g><defs><path id="SVGID_7_" d="M233.5 58l33.2-2.7L210 243.1l-3.9 12.9-124.2.1-7.1-49.8 31.4-73s52-63.3 55-63.3 72.3-12 72.3-12z"/></defs><clipPath id="SVGID_8_"><use xlink:href="#SVGID_7_" overflow="visible"/></clipPath><g clip-path="url(#SVGID_8_)"><path class="st23" d="M172.1 175.8s-9.9-1.3-16.9 8.4c-3.4 4.5-6.5 9.2-9.4 14.1l-3.9.9-.1 2.6-5.4 7-6.6 13 10.9 12.7 18.1-11.9 12.7-31.2.6-15.6z"/><path class="st24" d="M171.9 94.8s-5.4-2.2-5.2 2.5c-9.5-.3-13 5.8-10.2 9-6.2 1-5.9 5.3-4.3 5.4-11 3.5-10.1 10.6-7.7 13.2-5.4 2.7-6.5 9.2-1.9 8.8-7-.3-4.6 3.9-.7 4.4-8.1 6-4.1 16.3 7.6 16.4-5.6 6.8-.6 9 0 9.9-5 2.1 2.2 12.3 6.4 5.4 3.5 11.1 8.9 5.5 8.9 5.5s9.8 15 19.1 3.8c18.8-2.3 4.6-14.4 4.6-14.4s6.9 0 4.9-7c9.3-2.7 8.1-16.6-.6-18 7.5-4.5 1.6-7.9-3-6.6 7.7-9.3-2.9-12-6.1-10.2 8-8.3-3.6-9.2-3.6-9.2s7.9-4.7-.7-9.5c3.2-3.7-.8-8.1-5.3-6.1 4-3 .5-6.8-2.2-3.3z"/><path class="st25" d="M191.5 192.6s5.7 9.7 9.1-.8c13.3 8.9 21.4-.9 19.1-9.2 8.8 2.9 9.9-5 7.8-6.4 15.5 1.8 15.7-9.8 13.1-14.8 7-.5 9-8 3.7-10 8 4.1 5.6-2.1 1.4-4.6 9.3-2.5 5.9-13.9-5.3-18.7 6-3.2 1.8-6.6 1.4-7.5 4.7.3-.3-8.7-4.6-5.8-1-7.6-6.1-6.1-6.1-6.1s-4.3-10.2-13.3-7.4c-13.7-3.9-7.5 6.3-7.5 6.3s-5.2-2-6.1 2.7c-8.2-1.3-13.7 8.3-7.1 12.7-8.8.7-5.4 5.9-.6 6.7-12.5 5.2-3.8 13.2.4 12.8-13.3 5.3-1.6 13-1.6 13s-11.9 1.7-5.7 14.2c-6.7 3.8-5.6 14.7 1.9 14.6-8 2.4-6.8 13.3 0 8.3z"/><path class="st25" d="M249.5 130.4s7.1-2.2-.3-6.2c6.5-6.7 0-13.3-5.8-13.7 2.4-4.5-3-6.8-4.1-5.9 2.1-8.1-5.9-10.9-9.8-10.8.3-3.8-5-6.8-7.1-4.5 3.9-3.1-1-3.5-3.3-2-.8-5.5-10.2-6.9-16.1-2.3-1.7-4.2-5.5-2.9-6.3-3 1.2-2.5-8-2.5-6.2.9-7.5-1.8-7.3 1.8-7.3 1.8s-11.8-.6-11.5 6.1c-9.1 8.5 4.6 7.1 4.6 7.1s-3.9 3.1 1 5.2c-4.1 5.8 5.2 12.7 11.7 8.8-1.6 7 4.8 5.6 6.8 2.2 2.5 10.9 12.2 6 12.6 2.8 2.7 11.3 11.6 4.1 11.6 4.1s-.1 9.2 11.6 7c2.6 5.7 11.5 6.7 11.8 1.3 1.4 5.9 9.6 6.8 6.1 1.1z"/><path class="st24" d="M194.9 85.5s-1.1-3.6-4.5-.9c-4.4-4.2-10.2-2.5-11.1.3-3.4-2-6.1.2-5.5.9-6.8-2.7-10.8 1-11.3 3.2-3.7-.9-7.8 1.6-5.8 3.2-2.4-2.9-3.8-.1-2.7 1.6-6.1-.5-10.1 5.3-6.3 9.9-5.4.5-4.9 3.4-5.2 4-2.7-1.2-5.5 5.6-.7 4.7-4.5 5.6.1 5.8.1 5.8s-4.4 9.6 4.4 9.8c8.1 8.1 9.7-3.2 9.7-3.2s2.7 3.3 6.1-.4c5.5 3.4 14.1-2.9 11.2-7.7 6.4 1.7 6-2.6 3.1-4.3 10.1-.4 6.9-6.8 4.2-7.5 9.7-.1 4.7-6.1 4.7-6.1s7.3 1.3 6.5-5c4.4-.4 5.6-4.6 1.8-5.6 4.3.3 5.3-3.3 1.3-2.7z"/><path class="st25" d="M176.7 88.4s.4 2.6-4.2 3.3-3.8 3-5.6 4-5.7 2.9-5.1 4.8c.3 1.4.1 2.9-.4 4.3l14-10.1 1.3-6.3z"/><path class="st24" d="M222.2 105s1.2 9.9-2.1 10.8c.4 5.5-6.2 6.4-6.2 6.4l-1.8 6.3s15.4 1.7 8.1 13.3c7.2-6.8 4-17.4-2.1-17.1 8.8-1.7 4.5-7.4 4.5-7.4s8.4-2.8-.4-12.3zM223.1 96.3s8.1-8.7 12.5 0c2.7-2.3 7.7 1.5 3.9 7.2 7.1 3.6 4.8 11.3.8 13.8 4.7 4.2-3.4 12.3-8.1 7.4 3.8 0 9.4-4.3 4-7.4 4.7-4.5 4.8-11.5-2.7-10.9 3.1-5.3 2.2-8.2-.6-6.6-2.5-4.8-9.8-3.5-9.8-3.5z"/><path class="st24" d="M212.8 141.8s-1.1 6 4.5 5.6c-2.2 4.9 8.6 5.6 8.6 1.1 6.8 1.7 7.7-8 3.9-8.5 7.5-3.6.5-9.3.5-9.3s10 2.2 5.4 9.1c4.3 7.9-2.4 12.2-7 11.8-1.6 7.4-14.4 4.2-12.9 0-5.7-1.3-4.5-6.8-3-9.8z"/><path class="st26" d="M151.1 124.7s-5.5-.6-4.3 4c-4 0-3.9 7.5 4 6.1-2 6-.9 11.1 5.7 10-4.5-2.1-3-8.2.4-11.6-5-2.6-6.8-1.5-4.6-5.5-5.3-1.4-1.2-3-1.2-3zM156.5 94.9s-4.8-1.2-5 3.2c-5.6-.1-6.2 7.3-2.2 8.2-3.6.8-3.6 7.9.9 7.4-4.1-3.8 2-8 4.2-7.2-3.3-4.3-2.6-5.4 1.9-5.7-1.6-3.3-1.7-4.6.2-5.9z"/><defs><path id="SVGID_9_" d="M267.5 55.5L60.8 58.2l-6.6 197.7h131.1l20.8.1z"/></defs><clipPath id="SVGID_10_"><use xlink:href="#SVGID_9_" overflow="visible"/></clipPath><g clip-path="url(#SVGID_10_)"><defs><path id="SVGID_11_" d="M263.4 255.9l-163.5.1 6.3-189.2h163.7z"/></defs><clipPath id="SVGID_12_"><use xlink:href="#SVGID_11_" overflow="visible"/></clipPath><g clip-path="url(#SVGID_12_)"><path id="_Pfad_22" d="M180.6 175.8s3.2-1.8 12.1-1.4 11.6 1.4 11.6 1.4c-1.7 5.3-5.5 9.7-10.6 12-15.4 7.2-13.1-12-13.1-12z" fill="#eab897"/><path class="st30" d="M153.2 210.6s-1.6 6.9 13.1 9.7 32.3 3.9 38.4-2.4c16.1-16.6 9.6 4.6 4.9 10-9.7 11-41.7 6.9-50.5 1.4s-7.5-13.6-5.9-18.7z"/><path d="M196.8 255.3c-.2-14-.2-24.8.1-28.6 1.1-13.1 4-15.2 11.1-22.1s13.6-23.8 11-28c3.9 6.9 2.6 15.9-2.5 21.7s-12.8 11.4-13.7 17.6c-.7 4.9-1.8 22-1.9 39" opacity=".09" fill="#f1f4f6"/><g id="_Gruppe_4"><path id="_Pfad_23" d="M229.8 177.4c-9.9-4.4-38.7-11.7-62.1-1.8-3.1 1.3-3.8 2-5.1 4.5-1.6 3.2-2.6 5.3-3.2 14.1-3.5 8.7-15.7 23.2-12.2 31.4s7.1 10.8 7.1 10.8-.7 14.9-1.7 19.6l53.5-.1" fill="#91a8d6"/></g><path id="_Pfad_24" class="st33" d="M180.1 172.1s3.8-2 14.4-1.2 13.6 2.2 13.6 2.2c-2 6.2-6.6 11.1-12.6 13.6-17.9 7.8-15.4-14.6-15.4-14.6z"/><path class="st30" d="M148.1 215.5s-1.7 6.9 14.2 9.7 34.9 3.9 41.4-2.4c17.3-16.6 10.4 4.6 5.3 10-10.4 11-45 6.9-54.5 1.4s-8-13.5-6.4-18.7z"/><path class="st34" d="M169.1 220.9l5.8.3 3 13.2-4.8-.4z"/><ellipse transform="rotate(-81.628 184.51 193.641)" class="st34" cx="184.5" cy="193.6" rx="2.2" ry="2"/><ellipse transform="rotate(-81.628 174.922 211.602)" class="st34" cx="174.9" cy="211.6" rx="2.2" ry="2"/><ellipse transform="rotate(-81.628 174.164 244.378)" class="st34" cx="174.1" cy="244.4" rx="2.2" ry="2"/><path d="M183.3 171.5l.5-3.9s-7.1 1-7.5 2.9 3.8 15.9 7.2 21.3l2.4-3.4s.8-1.3-2.1-8.8-.5-8.1-.5-8.1z" fill="#f6f7f2"/><path class="st36" d="M190.9 188.5s-10 19.7-12.5 23.1-3.4 9.7-3.4 9.7l3 13.1s-.5 8.8-1.2 21h-5.5c.5-8.4 1.1-15.9 1.9-21.3l-4.1-13.1 3.8-11.4 11.1-21 6.9-.1z"/><path class="st34" d="M169.1 220.9l5.8.3 3 13.2-4.8-.4z"/><ellipse transform="rotate(-81.628 184.51 193.641)" class="st34" cx="184.5" cy="193.6" rx="2.2" ry="2"/><ellipse transform="rotate(-81.628 174.922 211.602)" class="st34" cx="174.9" cy="211.6" rx="2.2" ry="2"/><ellipse transform="rotate(-81.628 174.164 244.378)" class="st34" cx="174.1" cy="244.4" rx="2.2" ry="2"/><path class="st33" d="M182.8 173.4c.4 6.7 3.9 9.8 9.3 9s13.3-4.1 12.9-10.8-8.7-10.4-14.1-9.6-8.4 4.6-8.1 11.4z"/><path class="st33" d="M183.2 175.8h22l.4-32.5-23.2 11.3z"/><path class="st37" d="M202.8 102.6l3.5 24.4s-.4 13.6-1.9 17.6-4.8 9.7-10.5 12.8-11.1 5.7-14.8 6.4-5.3 1.3-7.8-1.9c-2.8-3.5-5.4-7.1-7.8-10.9-2.9-4.6-3.1-10.8-2.9-13.7s.4-11.9.3-13.7-1.2-13.8.9-16.8 10.1-9.2 10.9-9.2 13.3.4 13.3.4l16.8 4.6z"/><path class="st25" d="M168.1 102.8c-6.2 4-7.3 15.1-7.3 15.1-.3-3.6-.9-7.2-1.7-10.7-2.7-9 14.5-17.7 21.4-21.4s11.7-3.1 22.7 2.3 17.2 12.1 18.2 16.5c.9 3.7 1.1 7.6.6 11.5-.6 2.9-2.3 9.8-4 12.9s-13.6 15.5-13.6 15.5l1.4-12.5s-.4-14.5-4.1-21.9c-4.8-9.7-10.6-18.4-33.6-7.3z"/><path class="st25" d="M220.5 120.6c-.2 3.1 2.5 3.5-.2 5.8s-3.1.4-2.7 4c.3 3.6-1.7 5.7-3 5.5s-2.4 4.6-3.3 5.8c-1.6 2.2-3.8 3.8-6.3 4.7l3.4-17.2 12.1-8.6zM221.7 106.4c0 .2-.1.3-.1.5-.3.9-1.2 3-4.6 4.2-4.4 1.6-15.3-1-15.3-1l9.5 10.7s9.2-.6 11-6.4c-2.2 2.1-2.4 2.4-8.7 3.2 5.4-3.6 6.2-2.7 8-6.8s.2-4.4.2-4.4z"/><path class="st37" d="M204.7 130.8s2.6-3.8 6.8-4.7 4.2 4.5 2.8 7.3-5.6 9.7-9.4 6.6c-.4-4.7-.2-9.2-.2-9.2z"/><path class="st38" d="M206.2 138.1s-.4-6.3 2.8-8.3c2.3-1.4 3.3-1.6 3.8.1s-1.1 4-2.2 4.8-1.9 4.2-4.4 3.4zM179 140.1c-.8.9-2 1.4-3.2 1.3-1.9-.1-.8.7-2.3 1s-2.4-.2-2.9-1.2-1.4-.5-1.8-1.1 1.1-4.4 1.1-4.4-2.6 4.7-2 5.7 1.6.9 1.9 1.3 1.4 1.9 3 1.9 1.5-1.6 3.2-1.8 3-.4 3-2.7z"/><path class="st39" d="M169.8 153c-1.9-1.5-3.2-5.5-3.2-5.5 1.1-.5 2.3-1 3.5-1.3 1.9-.6.6-.9 2.5.5s2.9-.1 5-.6 7.7 2.9 7.7 2.9-3 4.1-6.1 5.2c-3.2 1-6.6.5-9.4-1.2z"/><path class="st40" d="M162.7 128.1c.5-1.3 1.2-2.6 2-3.8.8-1 4.7-3.7 6.4 3.4-3.5-.7-6.1-.8-8.4.4z"/><path class="st38" d="M163.3 131.1c-.2-.3 2.8.8 4.6.6-.9.5-2.8 1.7-4.6-.6z"/><path class="st25" d="M171.5 119.9c1.7.1 1.9.1 1.8-1.8 0-1.1-2.3-1.9-4.1-1.8s-6.5-.2-8.1 5.4c1.2-2.1 4.9-2.4 6.4-2.8 1.8-.5 3 .9 4 1z"/><path class="st41" d="M170.9 128.4c0-.9-.3-1.8-.8-2.6-1.1-1.4-3.1-1.8-4.6-.8-2.2 1.3-2.3 2.4-2.3 2.4-.5.3-1.1.4-1.7.2.1.9 1.1 1.5 2.2 1.5.5-.6 7.2-.7 7.2-.7z"/><path class="st21" d="M163.8 129.8c1.7 1.6 4.3.7 5.7.5 2.6-.4 1-2.2-.2-3.5s-3.9-1-5.4 1.5c-.8 1.4-.1 1.5-.1 1.5z"/><ellipse transform="rotate(-43.606 167.474 129.243)" class="st42" cx="167.5" cy="129.2" rx="1.6" ry="1.5"/><path class="st40" d="M192.7 128.4s-.8-2.9-2.2-3.8-5.9-3.8-8.8 3.2c4.8-.7 8.1-.7 11 .6z"/><path class="st38" d="M191.6 131c.3-.3-3.6.7-6.1.7 2 1 4.4.7 6.1-.7z"/><path class="st41" d="M181.8 128.4c.1-1 .6-1.9 1.3-2.5 1.7-1.4 4.1-1.7 6.1-.7 2.8 1.3 2.9 2.5 2.9 2.5.7.3 1.5.4 2.2.2-.2.8-1.6 1.4-3.1 1.4-.6-.6-9.4-.9-9.4-.9z"/><path class="st21" d="M190 130.1c-2.1 1.3-5 .9-6.7 0s-3.6.2.3-3.4c1.6-1.4 5.6-1.4 7.4 1.1.9 1.6-1 2.3-1 2.3z"/><ellipse transform="rotate(-43.606 186.102 129.115)" class="st42" cx="186.1" cy="129.1" rx="1.6" ry="1.5"/><path class="st25" d="M181.5 120.4c-2.3.4-2.8-.2-3-1.2s-.4-1.5 5.3-2.6c2.3-.4 12.2-1 13.3 5.2-2-1.9-7.2-2.5-9.3-2.5-2.1.2-4.2.6-6.3 1.1z"/><path class="st38" d="M191.9 129.6s-6.4 1.4-10.6-.1c1.9 1.6 9.5 3.1 10.6.1zM171.3 129.5s-4.5 1.8-8-.4c.1 1.1 4.4 3.9 8 .4z"/><path d="M165.6 147.2s5.6 2.7 8.4 2.8 10.9-.6 12.7-2.3l.8-1-.1 2.3-.8-.7s-8.3 3.2-12.8 2.8-8.2-3.9-8.2-3.9z" fill="#9e5b4b"/><path class="st39" d="M165.6 146.4l1 1-1.3.8z"/><path class="st44" d="M197.7 124.1c-.2-.4 11.4 2.8 11.4 2.8l-3.1 2.4-8.8-1.1c.1.1 1.1-2.4.5-4.1zM156.2 126.5l5.2.6.5-3.1-5.8-.5z"/><path d="M154.7 126.6l.7.3c0 2.5.2 4.9.6 7.3.6 2.4 2.9 5.3 8 5s8.6-4.4 10.2-9.3l.6-1.6c.6-.1 1.2-.1 1.8 0 .4 2.6 1.7 9.1 5.8 10.4s11.1 2.5 13.9-6.3c.3-1.4.4-2.8.3-4.1l.7-.1s1.1-2.6.4-4.2c-6-1.2-12.2-1.2-18.2 0-3.1.6-4.5 1.1-8 .1s-11.2-2-16.5-.6c-.3 2.3-.3 3.1-.3 3.1zm23.8 1.5c.3-3 7.6-4.3 12-3.5 5.9 1 4.5 6.3 4.5 6.3-1.7 8.2-7.3 8.2-11.1 6.9-3.5-1.3-5.7-6.6-5.4-9.7zm-16.6-3.7c4.6-.9 11.3.9 11.2 4s-2.7 7.6-6.4 9c-4 1.5-9.6 1.7-10.2-6.5.1 0-.6-5.3 5.4-6.5z" fill="#1d3752"/><path class="st46" d="M196 124.7l.6.9-.5 1-.4-.9zM156.7 124.2l.6.9-.8 1.1-.3-1z"/></g><path class="st47" d="M175.8 94.6c.9-.4 11-4.6 19-.8 18.3 8.7 23.4 19.6 22.6 29.2 1.9-11.2-.3-29.8-25.5-34.5-7.6-.5-16.1 6.1-16.1 6.1z"/><path class="st47" d="M201.8 94s-8.2-6.8-3-15.4-1.8-13.3-1.1-13.4 20.9 13 4.1 28.8z"/><path class="st47" d="M203.1 94.9s8.5 6.7 17.5 1 3.7-12.2 3.7-12.2.9 4.8-2.2 4.9-17.6-3.3-19 6.3z"/><path class="st48" d="M205.9 93.4s.9-3.2 5.3-2.4 10.3 3.8 14-.1c-5.9 5.7-16.1 9-19.3 2.5zM201.3 90.8s-2.1-.1.9-4.6 3.3-13.8-.2-15.6c1.1 5-2.1 8.3-2.8 11.1s-3.1 4.7 2.1 9.1z"/><path d="M204.9 91.3c-2.6-1.3-4.8-1.7-5.2-.7-.5.8-.7 1.8-.6 2.7.1.7 4 3.2 6.2 3.6s3.8-3.5-.4-5.6z" clip-path="url(#SVGID_12_)" fill="#5186b1"/><path class="st50" d="M188.2 238.1c4 1 13.9 3.9 21.7 5.4l-3.8 12.5h-11.2l-10.3-4.7s-6.5-.4-5.4-6.8 4.7-7.5 9-6.4z"/><path id="_Pfad_25" class="st50" d="M188.3 249.2l-2.3-8c-.7-2.3-2.8-3.4-5.9-3.7-.7-.1-5.3.4-6.3.6l2.9 15.4c.6-.2 1.2-.3 1.7-.3 1.2.1 1.5 1.5 1.2 2.6h5.7c.7-1.9 1.5-4.1 1.5-4.1l1.5-2.5z"/><path class="st23" d="M246.3 220.1s-5.2 4.6-9.2 4.5c2.3.1 4.6-.1 6.8-.5 1.3-1 2.1-2.4 2.4-4z"/><path class="st36" d="M183.9 190.2l2.3-6.7s4.6 2.1 7.9 1.5 13.3-8.2 13.3-8.2l-2.4-3.5.2-3.3s5.6 4.4 6.2 5-6.5 18.5-27.5 15.2z"/><path class="st23" d="M216.2 205.5s2.6-20.1 14-20.5l1.9.7s-11-1.6-15.9 19.8z"/><path class="st19" d="M74.8 206.3l7.1 49.8h66.4l25-.1-5.3-46.2c-.1-.8-4.4-3.6-5.2-3.7l-86.6-2c-1 0-1.5 1.1-1.4 2.2z"/><path class="st20" d="M178.5 255.9l-6.8-48.8c-.1-.8-.8-1.4-1.6-1.4L84 201.6c-.6 0-1.1 0-1.7.1l-6.3 2.6 87.5 4.6c1.6.1 2.9 1.3 3.1 2.9l6.2 44.3h5.7z"/><path class="st21" d="M120.3 242.1c-2 0-3.6-2-3.8-4.6s1.1-4.9 3.1-5.3c1.1-.2 2.3.2 3 1.1l.8-4.1c-1.2-.8-2.7-1-4.1-.6-3.3.9-5.4 5-5 9.2s3 7.7 6.4 7.9c1.5.1 2.9-.5 4-1.5l-1.4-3.9c-.7 1-1.8 1.7-3 1.8z"/><path class="st21" d="M124.2 229.8l-.9 4.6c0 .3-.2.5-.5.5-.2 0-.4-.1-.5-.2-.5-1-1.6-1.5-2.7-1.3-1.5.3-2.6 2.1-2.4 4.2s1.5 3.6 3 3.5c1.1-.1 2-.8 2.4-1.9.1-.2.2-.3.4-.3.3 0 .5.2.6.4l1.6 4.3c1.5-2 2.3-4.6 2-7.1-.1-2.7-1.2-5-3-6.7z"/><path class="st23" d="M246.1 226c-1.2 1.4-2.8 2.3-4.6 2.6 1.5 1.2 3.2 2 5 2.4l-.5-2 .1-3z"/></g></g></g></svg>