<svg version="1.1" id="Layer_1" xmlns="http://www.w3.org/2000/svg" x="0" y="0" viewBox="0 0 204.3 45" xml:space="preserve"><style>.st0{fill-rule:evenodd;clip-rule:evenodd}</style><path class="st0" d="M67.3 7.4V5.8c0-.2-.2-.4-.4-.4h-9.7c-.2 0-.4.2-.4.4v1.6c0 .2.2.4.4.4h3.5v12c0 .2.2.4.4.4h2c.2 0 .4-.2.4-.4v-12H67c.1 0 .3-.2.3-.4zM80.1 19.8v-14c0-.2-.2-.4-.4-.4h-2c-.2 0-.4.2-.4.4v5.5h-5.6V5.8c0-.2-.2-.4-.4-.4h-2c-.2 0-.4.2-.4.4v14c0 .2.2.4.4.4h2c.2 0 .4-.2.4-.4v-6.1h5.6v6.1c0 .2.2.4.4.4h2c.2 0 .4-.2.4-.4zM91.6 19.7v-1.3c0-.2-.2-.4-.4-.4h-4.1c-1.2 0-1.6-.4-1.6-1.7v-2.6h5.4c.2 0 .4-.2.4-.4v-1.4c0-.2-.2-.4-.4-.4h-5.4V9.4c0-1.3.4-1.7 1.6-1.7h4.1c.2 0 .4-.2.4-.4V6c0-.3-.1-.4-.4-.4-.6-.1-1.4-.3-3.8-.3-2.6 0-4.6.7-4.6 4.1v6.9c0 3.4 2 4.1 4.6 4.1 2.4 0 3.1-.2 3.8-.3.3-.1.4-.2.4-.4zM107.5 19.6v-1.3c0-.2-.1-.4-.4-.4-.7.1-2.1.2-3.1.2-1.7 0-2.9-1-2.9-3.7v-2.9c0-2.8 1.2-3.7 2.9-3.7 1.1 0 2.4.1 3.1.2.3 0 .4-.2.4-.4V6.1c0-.3-.2-.4-.4-.4-.3-.1-1.6-.3-3.1-.3-2.4 0-5.6 1.1-5.6 6.1v2.9c0 4.9 3.2 6.1 5.6 6.1 1.5 0 2.8-.2 3.1-.3.2-.3.4-.3.4-.6zM116.3 13.9h-3.5l1.4-5.9c.1-.2.1-.3.3-.3.2 0 .3.1.3.3l1.5 5.9zm4.3 6v-.1l-3.3-12.4c-.5-1.9-1.9-2-2.8-2-.9 0-2.3.2-2.8 2l-3.3 12.4v.1c0 .2.2.3.4.3h2.1c.2 0 .3-.2.4-.3l.9-3.8h4.6l.9 3.8c0 .2.2.3.4.3h2.1c.3 0 .4-.1.4-.3zM130.5 19.7v-1.3c0-.2-.2-.4-.4-.4h-3.7c-1.2 0-1.6-.4-1.6-1.7V5.9c0-.2-.2-.4-.4-.4h-2c-.2 0-.4.2-.4.4v10.4c0 3.4 2 4 4.6 4 1.1 0 2.8-.1 3.4-.3.4 0 .5-.1.5-.3zM140.6 19.7v-1.3c0-.2-.2-.4-.4-.4h-3.7c-1.2 0-1.6-.4-1.6-1.7V5.9c0-.2-.2-.4-.4-.4h-2c-.2 0-.4.2-.4.4v10.4c0 3.4 2 4 4.6 4 1.1 0 2.8-.1 3.4-.3.4 0 .5-.1.5-.3zM66.5 38.5v-1.3c0-.2-.1-.4-.4-.4-.7.1-2 .2-3.1.2-1.7 0-2.9-1-2.9-3.7v-2.9c0-2.8 1.2-3.7 2.9-3.7 1.1 0 2.4.1 3.1.2.3 0 .4-.2.4-.4V25c0-.3-.2-.4-.4-.4-.3-.1-1.6-.3-3.1-.3-2.4 0-5.6 1.1-5.6 6.1v2.9c0 4.9 3.2 6.1 5.6 6.1 1.5 0 2.8-.2 3.1-.3.2-.2.4-.3.4-.6zM77.4 38.6v-1.3c0-.2-.2-.4-.4-.4h-4c-1.2 0-1.6-.4-1.6-1.7v-2.6h5.4c.2 0 .4-.2.4-.4v-1.4c0-.2-.2-.4-.4-.4h-5.4v-2.2c0-1.3.4-1.7 1.6-1.7h4c.2 0 .4-.2.4-.4v-1.3c0-.3-.1-.4-.4-.4-.6-.1-1.4-.3-3.8-.3-2.6 0-4.6.7-4.6 4.1v6.9c0 3.4 2 4.1 4.6 4.1 2.4 0 3.1-.2 3.8-.3.3.1.4 0 .4-.3zM91 38.3V24.8c0-.2-.2-.4-.4-.4h-1.7c-.2 0-.4.2-.4.4v10.4c0 .1-.1.2-.1.2-.1 0-.1-.1-.2-.2L83.7 25c-.2-.5-.5-.6-.9-.6h-2.2c-.4 0-.8.4-.8.8v13.5c0 .2.2.4.4.4h1.7c.2 0 .4-.2.4-.4v-10c0-.1 0-.2.1-.2s.1 0 .2.2l4.4 9.7c.3.7.7.7 1.2.7h2c.4 0 .8-.3.8-.8zM103.3 26.3v-1.6c0-.2-.2-.4-.4-.4h-9.7c-.2 0-.4.2-.4.4v1.6c0 .2.2.4.4.4h3.5v12c0 .2.2.4.4.4h2c.2 0 .4-.2.4-.4v-12h3.5c.1 0 .3-.1.3-.4zM113.7 38.6v-1.3c0-.2-.2-.4-.4-.4h-4.1c-1.2 0-1.6-.4-1.6-1.7v-2.6h5.4c.2 0 .4-.2.4-.4v-1.4c0-.2-.2-.4-.4-.4h-5.4v-2.2c0-1.3.4-1.7 1.6-1.7h4.1c.2 0 .4-.2.4-.4v-1.3c0-.3-.1-.4-.4-.4-.6-.1-1.4-.3-3.8-.3-2.6 0-4.6.7-4.6 4.1v6.9c0 3.4 2 4.1 4.6 4.1 2.4 0 3.1-.2 3.8-.3.3.1.4 0 .4-.3zM123.6 28.9c0 1.7-.9 2.3-3 2.3-.3 0-1.5 0-1.8-.1v-4.4c.4 0 1.4-.1 1.8-.1 2 0 3 .6 3 2.1v.2zm3.3 10v-.2l-3.1-5.9c1.6-.6 2.7-1.9 2.7-4v-.2c0-3.4-2.7-4.5-5.7-4.5-1.5 0-2.9.1-3.9.3-.4.1-.6.2-.6.6v13.6c0 .2.2.4.4.4h2c.2 0 .4-.2.4-.4v-5.5c.5 0 1.3.1 1.8.1h.3l2.9 5.4c.1.2.2.4.4.4h2.4c-.1.1 0 0 0-.1zM142.5 35.1c0-1.6-.6-2.8-2.8-4l-2.4-1.3c-1.3-.7-1.6-1.1-1.6-1.8 0-.9.6-1.4 2.1-1.4 1.3 0 2.6.1 3.9.2.2 0 .3-.2.3-.4V25c0-.2-.2-.3-.4-.4-.7-.2-2.5-.4-3.8-.4-3.7 0-5 1.6-5 3.8 0 1.4.5 2.5 2.4 3.6l2.6 1.6c1.3.8 1.7 1.2 1.7 1.9 0 1.2-.5 1.8-2.3 1.8-.7 0-2.7-.1-3.5-.2-.2 0-.4.2-.4.4v1.4c0 .2.2.4.4.4 1 .2 2 .4 3.5.4 4 0 5.3-2.2 5.3-4.2zM153.3 38.5v-1.3c0-.2-.1-.4-.4-.4-.7.1-2.1.2-3.1.2-1.7 0-2.9-1-2.9-3.7v-2.9c0-2.8 1.2-3.7 2.9-3.7 1.1 0 2.4.1 3.1.2.3 0 .4-.2.4-.4V25c0-.3-.2-.4-.4-.4-.3-.1-1.6-.3-3.2-.3-2.4 0-5.6 1.1-5.6 6.1v2.9c0 4.9 3.2 6.1 5.6 6.1 1.5 0 2.8-.2 3.2-.3.3-.2.4-.3.4-.6zM166.7 38.7v-14c0-.2-.2-.4-.4-.4h-2c-.2 0-.4.2-.4.4v5.5h-5.6v-5.5c0-.2-.2-.4-.4-.4h-2c-.2 0-.4.2-.4.4v14c0 .2.2.4.4.4h2c.2 0 .4-.2.4-.4v-6.1h5.6v6.1c0 .2.2.4.4.4h2c.2 0 .4-.2.4-.4zM177.5 33.1c0 2.6-.9 3.8-2.9 3.8s-2.9-1.2-2.9-3.8v-2.7c0-2.6.9-3.8 2.9-3.8s2.9 1.2 2.9 3.8v2.7zm2.7 0v-2.7c0-4.4-2.4-6.2-5.7-6.2-3.3 0-5.7 1.8-5.7 6.2v2.7c0 4.4 2.4 6.2 5.7 6.2 3.4 0 5.7-1.8 5.7-6.2zM190.7 33.1c0 2.6-.9 3.8-2.9 3.8s-2.9-1.2-2.9-3.8v-2.7c0-2.6.9-3.8 2.9-3.8s2.9 1.2 2.9 3.8v2.7zm2.8 0v-2.7c0-4.4-2.4-6.2-5.7-6.2-3.3 0-5.7 1.8-5.7 6.2v2.7c0 4.4 2.4 6.2 5.7 6.2 3.3 0 5.7-1.8 5.7-6.2zM204.3 38.6v-1.3c0-.2-.2-.4-.4-.4h-3.7c-1.2 0-1.6-.4-1.6-1.7V24.8c0-.2-.2-.4-.4-.4h-2c-.2 0-.4.2-.4.4v10.4c0 3.4 2 4.1 4.6 4.1 1.1 0 2.8-.1 3.4-.3.4-.1.5-.1.5-.4z"/><g fill-rule="evenodd" clip-rule="evenodd"><path d="M22.5 35.4c-7.1 0-12.9-5.8-12.9-12.9S15.4 9.6 22.5 9.6c3.8 0 7.3 1.7 9.7 4.3l3.5-9.6C32 1.6 27.4 0 22.5 0 10.1 0 0 10.1 0 22.5S10.1 45 22.5 45c4.9 0 9.5-1.6 13.2-4.3l-3.5-9.6c-2.4 2.7-5.9 4.3-9.7 4.3z" fill="#fba900"/><path d="M37.8 6L34 16.5c-.3.6-.9 1.1-1.6 1.1-.6 0-1.1-.3-1.4-.7-1.8-2.7-4.9-4.5-8.4-4.5-5.6 0-10.1 4.5-10.1 10.1S17 32.6 22.6 32.6c3.5 0 6.6-1.8 8.4-4.5.3-.4.8-.7 1.4-.7.7 0 1.4.5 1.6 1.1L37.8 39c4.4-4.1 7.2-10 7.2-16.5S42.2 10.1 37.8 6z" fill="#ffd782"/></g></svg>